HIERARCHY
ROOT Hip
{
  OFFSET 0.0 0.0 0.0
  CHANNELS 6 Xposition Yposition Zposition Xrotation Yrotation Zrotation
  JOINT LowerSpine
  {
    OFFSET 0.0 0.061367 -0.03653
    CHANNELS 3 Xrotation Yrotation Zrotation
    JOINT MiddleSpine
    {
      OFFSET 0.0 0.056002 0.002633
      CHANNELS 3 Xrotation Yrotation Zrotation
      JOINT Chest
      {
        OFFSET 0.0 0.069296 -0.013882
        CHANNELS 3 Xrotation Yrotation Zrotation
        JOINT Neck
        {
          OFFSET 0.0 0.156156 -0.002923
          CHANNELS 3 Xrotation Yrotation Zrotation
          JOINT Head
          {
            OFFSET 0.0 0.088183 0.023986
            CHANNELS 3 Xrotation Yrotation Zrotation
            End Site
            {
              OFFSET 1e-06 0.123215 0.003678
            }
          }
        }
        JOINT LClavicle
        {
          OFFSET 0.014189 0.150698 0.046467
          CHANNELS 3 Xrotation Yrotation Zrotation
          JOINT LShoulder
          {
            OFFSET 0.082893 0.021616 -0.034976
            CHANNELS 3 Xrotation Yrotation Zrotation
            JOINT LForearm
            {
              OFFSET 0.195645 -0.000695 -0.001695
              CHANNELS 3 Xrotation Yrotation Zrotation
              JOINT LHand
              {
                OFFSET 0.163209 0.000474 -0.000977
                CHANNELS 3 Xrotation Yrotation Zrotation
                End Site
                {
                  OFFSET 0.0 0.006864 0.0
                }
              }
            }
          }
        }
        JOINT RClavicle
        {
          OFFSET -0.014189 0.150698 0.046467
          CHANNELS 3 Xrotation Yrotation Zrotation
          JOINT RShoulder
          {
            OFFSET -0.082908 0.021619 -0.034982
            CHANNELS 3 Xrotation Yrotation Zrotation
            JOINT RForearm
            {
              OFFSET -0.195645 -0.000695 -0.001695
              CHANNELS 3 Xrotation Yrotation Zrotation
              JOINT RHand
              {
                OFFSET -0.163209 0.000474 -0.000977
                CHANNELS 3 Xrotation Yrotation Zrotation
                End Site
                {
                  OFFSET 0.0 0.006864 0.0
                }
              }
            }
          }
        }
      }
    }
  }
  JOINT RThigh
  {
    OFFSET -0.072558 0.02774 -0.005953
    CHANNELS 3 Xrotation Yrotation Zrotation
    JOINT RShin
    {
      OFFSET -0.005253 -0.285537 0.0
      CHANNELS 3 Xrotation Yrotation Zrotation
      JOINT RFoot
      {
        OFFSET 0.0 -0.28038 0.0
        CHANNELS 3 Xrotation Yrotation Zrotation
        JOINT RToe
        {
          OFFSET 0.0 -0.030816 0.064441
          CHANNELS 3 Xrotation Yrotation Zrotation
          End Site
          {
            OFFSET 0.0 0.0 0.043231
          }
        }
      }
    }
  }
  JOINT LThigh
  {
    OFFSET 0.072557 0.027741 -0.005953
    CHANNELS 3 Xrotation Yrotation Zrotation
    JOINT LShin
    {
      OFFSET 0.005253 -0.285539 0.0
      CHANNELS 3 Xrotation Yrotation Zrotation
      JOINT LFoot
      {
        OFFSET 0.0 -0.28038 0.0
        CHANNELS 3 Xrotation Yrotation Zrotation
        JOINT LToe
        {
          OFFSET 0.0 -0.030816 0.064441
          CHANNELS 3 Xrotation Yrotation Zrotation
          End Site
          {
            OFFSET 0.0 0.0 0.043231
          }
        }
      }
    }
  }
}
MOTION
Frames: 14
Frame Time: 0.03333333333333333
-0.026956 0.572867 0.023062 13.327561 10.671721 9.270758 -12.633673 13.274961 -12.441621 0.299258 -4.228954 -21.437107 -5.468904 -15.679436 17.056616 4.237687 -21.69558 -0.014288 -5.01902 22.478809 6.981249 -3.113003 22.685299 -16.114767 15.590446 -7.445755 -44.921284 -9.887497 -27.361795 -23.34083 -11.92103 -13.800713 13.681218 18.404278 -2.832826 19.292879 -21.955807 18.193535 23.321259 -126.656082 70.282425 86.311775 20.204836 5.76323 10.149268 -10.663049 -6.636192 -17.233583 -2.952813 19.842611 9.806404 -5.198694 -12.172082 18.091824 9.390983 -18.136925 -10.337946 -9.393031 0.378529 -16.080925 -4.320964 22.126831 12.231689 9.795116 17.742584 -11.364552 -13.766494 17.706062 9.652411 
-0.031167 0.57086 0.022995 13.177012 10.371631 9.252806 -12.227359 13.110681 -12.797998 0.293688 -4.111044 -21.340261 -5.132689 -15.464211 17.121399 4.289241 -21.568083 0.102155 -5.095789 22.33415 6.934627 -3.640275 22.349209 -15.275423 15.290041 -7.404878 -45.070782 -10.139102 -27.475182 -23.152153 -11.938283 -13.741655 13.538511 18.379133 -2.315087 19.577932 -21.545736 16.646931 24.915184 -122.533676 70.313171 82.554573 20.075634 5.749436 10.136391 -10.637678 -6.764679 -16.871382 -2.898308 19.395857 10.179513 -5.655371 -11.677673 18.168987 9.171408 -18.092978 -10.365691 -9.467356 0.313775 -15.681145 -4.049596 21.776659 12.395077 9.538123 17.541685 -11.575785 -13.610123 17.666515 9.599202 
-0.036146 0.569076 0.021726 13.002748 10.121103 9.263085 -11.768538 12.84568 -13.204349 0.278453 -3.949857 -21.227747 -4.754946 -15.284485 17.15962 4.219849 -21.428865 0.280585 -5.164141 22.145895 6.872161 -4.280365 21.857517 -14.367253 15.045515 -7.494915 -45.146576 -10.26278 -27.411108 -22.869434 -11.939595 -13.661773 13.359597 18.308996 -1.553552 19.697876 -20.911201 15.272622 26.46545 -117.884857 70.351517 78.509293 19.9037 5.721609 10.102943 -10.707969 -6.851498 -16.572803 -2.78269 18.767805 10.635476 -6.15673 -11.076735 18.228134 8.962245 -17.993364 -10.372897 -9.589808 0.262922 -15.263573 -3.693073 21.331041 12.537386 9.228148 17.214731 -11.842487 -13.445619 17.580685 9.524425 
-0.04097 0.567046 0.020338 12.875021 9.946349 9.261586 -11.340844 12.561632 -13.572538 0.259832 -3.809355 -21.118069 -4.478599 -15.154533 17.137493 4.096398 -21.270271 0.426898 -5.236369 21.936436 6.799409 -4.847778 21.360712 -13.584937 14.830781 -7.647583 -45.153065 -10.335917 -27.231466 -22.548985 -11.915645 -13.573382 13.172674 18.241705 -0.780627 19.634562 -20.310011 14.119275 27.800842 -114.036255 70.445633 75.386314 19.715803 5.680994 10.06069 -10.786241 -6.946136 -16.367947 -2.673533 18.01936 11.101084 -6.658915 -10.468131 18.257908 8.772696 -17.864843 -10.365789 -9.739886 0.178303 -14.871246 -3.323982 20.835878 12.654957 8.897191 16.871874 -12.086666 -13.276265 17.472673 9.44274 
-0.04589 0.565232 0.01829 12.803619 9.817579 9.226788 -10.928873 12.269441 -13.963181 0.240687 -3.70323 -20.991861 -4.28556 -14.973337 17.090979 4.008999 -21.106457 0.59708 -5.310884 21.734333 6.722686 -5.410988 20.878916 -12.82885 14.63344 -7.868051 -45.113499 -10.440454 -27.097561 -22.255068 -11.871231 -13.487569 13.007025 18.17898 0.034029 19.517246 -19.824757 13.204582 29.066286 -109.535286 70.394722 71.65506 19.533236 5.633462 10.022826 -10.965838 -6.93239 -16.190138 -2.50942 17.302727 11.576293 -7.214021 -9.86656 18.265779 8.596853 -17.744753 -10.348998 -9.981876 0.139801 -14.50089 -2.93239 20.364704 12.821712 8.523574 16.53775 -12.324614 -13.1064 17.369541 9.372885 
-0.050569 0.563838 0.016208 12.759472 9.723021 9.162263 -10.534599 11.990269 -14.352714 0.198144 -3.649346 -20.852266 -4.147429 -14.748298 17.03583 3.914823 -20.950212 0.750431 -5.380518 21.553905 6.638117 -5.882332 20.458982 -12.094443 14.47606 -8.180748 -45.016018 -10.44648 -27.048981 -21.971439 -11.838477 -13.392012 12.865369 18.093645 0.741509 19.374344 -19.3382 12.64275 30.107252 -103.93251 70.119362 66.952148 19.362259 5.578515 9.992801 -11.229772 -6.891034 -16.090166 -2.18488 16.641356 12.071301 -7.658326 -9.355083 18.231899 8.433203 -17.634867 -10.329597 -10.193442 0.233271 -14.134365 -2.588336 19.992655 13.000892 8.180536 16.166031 -12.530456 -12.957433 17.267149 9.321562 
-0.054696 0.563028 0.014526 12.726938 9.678417 9.058271 -10.193612 11.734685 -14.676686 0.154897 -3.591908 -20.715685 -4.024236 -14.553132 16.923388 3.813655 -20.79491 0.875992 -5.443377 21.374054 6.553455 -6.279058 20.072569 -11.451753 14.347495 -8.502055 -44.872036 -10.392743 -26.982168 -21.698795 -11.795549 -13.291669 12.735579 17.95857 1.381036 19.269838 -18.708851 12.078472 31.038368 -99.062714 69.861229 62.966953 19.192858 5.516014 9.960568 -11.536143 -6.879293 -16.044315 -1.749311 15.954197 12.522175 -7.97872 -8.91654 18.170353 8.278504 -17.52681 -10.300906 -10.386021 0.354301 -13.771038 -2.265193 19.654839 13.142453 7.872886 15.781514 -12.696544 -12.810418 17.158316 9.274695 
-0.058117 0.562624 0.01328 12.6953 9.652848 8.936549 -9.909605 11.476622 -14.933721 0.123488 -3.537195 -20.558372 -3.941683 -14.316525 16.778114 3.744635 -20.611002 0.9995 -5.49509 21.179878 6.474686 -6.574394 19.742395 -10.90748 14.211316 -8.809153 -44.768452 -10.28891 -26.932552 -21.427454 -11.733902 -13.183651 12.608582 17.779314 1.881156 19.187214 -18.139872 11.612506 31.798126 -94.558807 69.576965 59.223053 19.024317 5.446931 9.909592 -11.777466 -6.854038 -16.010435 -1.314375 15.272684 12.892489 -8.195938 -8.509532 18.092804 8.142034 -17.400597 -10.255086 -10.580381 0.4242 -13.409342 -1.915364 19.298706 13.235043 7.595988 15.421088 -12.827127 -12.673118 17.031082 9.214027 
-0.060815 0.562608 0.012372 12.70877 9.646833 8.816153 -9.6768 11.251914 -15.117989 0.09572 -3.479851 -20.412821 -3.885579 -14.080522 16.62788 3.743873 -20.427345 1.123936 -5.537031 21.003138 6.403973 -6.77992 19.477308 -10.489036 14.067743 -9.062154 -44.686867 -10.226116 -26.925076 -21.186504 -11.670794 -13.084795 12.50052 17.595297 2.223626 19.131289 -17.76716 11.218943 32.42804 -90.577782 69.247681 55.894032 18.877676 5.386816 9.858244 -12.043242 -6.813694 -15.986558 -0.859943 14.685493 13.174203 -8.344168 -8.207039 17.997648 8.020641 -17.290247 -10.205673 -10.781693 0.490324 -13.102201 -1.593972 19.024248 13.280063 7.359571 15.115103 -12.919209 -12.559976 16.910303 9.154765 
-0.062895 0.562893 0.011734 12.737139 9.684916 8.707895 -9.487636 11.074207 -15.256585 0.063248 -3.439172 -20.290924 -3.844869 -13.878701 16.5016 3.78924 -20.262207 1.235409 -5.574401 20.860952 6.351339 -6.913653 19.290421 -10.187066 13.927265 -9.239841 -44.607407 -10.201725 -26.937864 -20.997049 -11.615426 -13.005762 12.41888 17.436726 2.440252 19.108797 -17.509741 10.881327 32.913441 -87.606201 68.990234 53.414249 18.761627 5.335846 9.816535 -12.293451 -6.784219 -16.005339 -0.460086 14.195966 13.402253 -8.445533 -7.9964 17.902277 7.921732 -17.206703 -10.162 -10.97412 0.550268 -12.871882 -1.332057 18.814098 13.313661 7.173163 14.870265 -12.986057 -12.472291 16.813185 9.105123 
-0.064302 0.563479 0.011258 12.78085 9.758992 8.618178 -9.361434 10.95435 -15.339524 0.033202 -3.407632 -20.205036 -3.822059 -13.728971 16.405966 3.8675 -20.133734 1.325101 -5.601674 20.761974 6.320442 -6.977479 19.189747 -10.003484 13.802613 -9.328282 -44.556183 -10.209318 -26.979448 -20.872169 -11.572813 -12.951787 12.366635 17.313215 2.530249 19.123238 -17.377983 10.609845 33.248997 -85.61261 68.813995 51.733837 18.68187 5.2986 9.788901 -12.522161 -6.772978 -16.051394 -0.144129 13.838493 13.559564 -8.493126 -7.89422 17.816917 7.846899 -17.156963 -10.12884 -11.1546 0.605554 -12.727416 -1.144158 18.68774 13.330061 7.048438 14.704266 -13.030773 -12.414365 16.744669 9.069334 
-0.064988 0.564295 0.010829 12.834574 9.848612 8.545243 -9.300313 10.889504 -15.354859 0.001661 -3.382289 -20.146496 -3.815201 -13.628339 16.342953 3.974066 -20.037596 1.38661 -5.619042 20.70071 6.30906 -6.969288 19.16264 -9.944983 13.707415 -9.332198 -44.547321 -10.238399 -27.051203 -20.803305 -11.5406 -12.91953 12.339787 17.228323 2.495711 19.156567 -17.397482 10.410317 33.437252 -84.708519 68.775536 50.926266 18.634604 5.274006 9.770264 -12.71957 -6.763538 -16.110046 0.071469 13.629184 13.63062 -8.484455 -7.899958 17.738697 7.80413 -17.131983 -10.101352 -11.299991 0.664078 -12.66286 -1.053003 18.652369 13.32718 6.976938 14.629082 -13.037417 -12.386946 16.697451 9.042024 
-0.064883 0.565282 0.010394 12.894542 9.941149 8.491754 -9.315053 10.88423 -15.300023 -0.033332 -3.36723 -20.121082 -3.829049 -13.596876 16.313974 4.080065 -19.985884 1.412214 -5.626836 20.682383 6.316753 -6.895905 19.20701 -10.012842 13.664806 -9.247187 -44.578007 -10.282246 -27.153534 -20.801161 -11.524022 -12.911095 12.339523 17.193764 2.351617 19.200031 -17.540207 10.281522 33.454693 -85.097359 68.929024 51.172104 18.622599 5.266309 9.763103 -12.866909 -6.759669 -16.181858 0.147776 13.576691 13.614129 -8.415544 -8.003528 17.682417 7.801888 -17.130238 -10.082701 -11.392786 0.726415 -12.673913 -1.078889 18.716024 13.303531 6.958074 14.651871 -13.004568 -12.392032 16.676048 9.024605 
-0.063947 0.566372 0.009953 12.944271 10.022688 8.457291 -9.407637 10.940923 -15.173639 -0.076618 -3.366555 -20.130686 -3.859053 -13.649046 16.325266 4.150579 -19.985598 1.39264 -5.624003 20.708454 6.341452 -6.768788 19.308872 -10.206022 13.699281 -9.063263 -44.644108 -10.327648 -27.278629 -20.870304 -11.529715 -12.926277 12.361941 17.217634 2.127772 19.235338 -17.748796 10.214664 33.278175 -87.229385 69.372444 52.90237 18.644966 5.280304 9.767771 -12.936438 -6.762409 -16.272093 0.051612 13.677956 13.513744 -8.286208 -8.190524 17.657417 7.849809 -17.145191 -10.07431 -11.407321 0.783552 -12.748127 -1.242986 18.877234 13.257274 6.986603 14.776363 -12.925689 -12.430879 16.681641 9.015261 
